<?xml version="1.0" encoding="UTF-8" standalone="no"?>
<svg
   xmlns:dc="http://purl.org/dc/elements/1.1/"
   xmlns:cc="http://creativecommons.org/ns#"
   xmlns:rdf="http://www.w3.org/1999/02/22-rdf-syntax-ns#"
   xmlns:svg="http://www.w3.org/2000/svg"
   xmlns="http://www.w3.org/2000/svg"
   xmlns:sodipodi="http://sodipodi.sourceforge.net/DTD/sodipodi-0.dtd"
   xmlns:inkscape="http://www.inkscape.org/namespaces/inkscape"
   fill="#000000"
   height="48"
   viewBox="0 0 24 24"
   width="48"
   version="1.1"
   id="svg76"
   sodipodi:docname="tabcounter.svg"
   inkscape:version="0.92.2 5c3e80d, 2017-08-06">
  <metadata
     id="metadata82">
    <rdf:RDF>
      <cc:Work
         rdf:about="">
        <dc:format>image/svg+xml</dc:format>
        <dc:type
           rdf:resource="http://purl.org/dc/dcmitype/StillImage" />
        <dc:title></dc:title>
      </cc:Work>
    </rdf:RDF>
  </metadata>
  <defs
     id="defs80" />
  <sodipodi:namedview
     pagecolor="#ffffff"
     bordercolor="#666666"
     borderopacity="1"
     objecttolerance="10"
     gridtolerance="10"
     guidetolerance="10"
     inkscape:pageopacity="0"
     inkscape:pageshadow="2"
     inkscape:window-width="1920"
     inkscape:window-height="1015"
     id="namedview78"
     showgrid="false"
     showguides="true"
     inkscape:guide-bbox="true"
     inkscape:zoom="23.805928"
     inkscape:cx="20.09341"
     inkscape:cy="22.752475"
     inkscape:window-x="0"
     inkscape:window-y="0"
     inkscape:window-maximized="1"
     inkscape:current-layer="svg76">
    <sodipodi:guide
       position="-159.96016,73.931166"
       orientation="1,0"
       id="guide111"
       inkscape:locked="false" />
    <sodipodi:guide
       position="232.54712,68.554354"
       orientation="0,1"
       id="guide113"
       inkscape:locked="false" />
    <sodipodi:guide
       position="233.89132,-98.12682"
       orientation="0,1"
       id="guide115"
       inkscape:locked="false" />
  </sodipodi:namedview>
  <path
     d="M0 0h24v24H0z"
     fill="none"
     id="path74" />
  <path
     style="fill:#000000;fill-opacity:1;stroke:#000000;stroke-width:1.28250003;stroke-miterlimit:4;stroke-dasharray:none;stroke-opacity:1"
     id="path65"
     d="m 4.5053733,6.2795241 c -0.022374,0.7942225 -0.048836,1.588324 -0.075514,2.3824435 -0.05787,1.5667174 -0.1276174,3.1328094 -0.1674341,4.7001334 -0.025329,1.117971 -0.032226,2.236244 -0.018574,3.354401 0.00553,0.297059 0.010526,0.594207 0.023619,0.891054 0.00138,0.03236 0.00281,0.06469 0.00394,0.09705 0,0 -0.3958556,0.202026 -0.3958556,0.202026 v 0 c 7.15e-4,-0.03349 0.00141,-0.06698 0.00255,-0.100462 0.010259,-0.305374 0.017501,-0.610843 0.025065,-0.916293 0.024723,-1.128214 0.040991,-2.256633 0.076246,-3.384595 0.050225,-1.564104 0.1223698,-3.12754 0.1523005,-4.6922404 0.00868,-0.778486 0.022274,-1.557568 -0.014782,-2.3355945 0,0 0.3884403,-0.19792 0.3884403,-0.19792 z"
     inkscape:connector-curvature="0" />
  <path
     style="fill:#000000;fill-opacity:1;stroke:#000000;stroke-width:1.08408737;stroke-miterlimit:4;stroke-dasharray:none;stroke-opacity:1"
     id="path71"
     d="m 1.998631,11.083822 c 0.053248,0.0049 0.1066405,0.0063 0.1597447,0.01466 0.4315601,0.06845 0.8602417,0.194864 1.2889883,0.301275 0.6656997,0.165218 0.651047,0.158346 1.3387648,0.315414 0.9635668,0.202429 1.9283254,0.391776 2.8955957,0.531667 0.5884918,0.08511 0.8211395,0.106435 1.4072915,0.172036 1.189654,0.131589 2.381478,0.176077 3.573207,0.191926 0.668251,0.0066 1.336508,-0.0012 2.004722,-0.01341 0.21541,-0.0043 0.430823,-0.0093 0.646194,-0.01776 0.03055,-0.0011 0.0611,-0.0023 0.09166,-0.0029 0,0 -0.228138,0.290587 -0.228138,0.290587 v 0 c -0.02917,-4.97e-4 -0.05835,-0.0016 -0.08751,-0.0023 -0.207448,-0.0067 -0.414929,-0.0095 -0.622401,-0.01261 -0.655599,-0.0091 -1.311206,-0.01774 -1.96675,-0.03558 -1.182982,-0.03705 -2.366206,-0.08659 -3.546942,-0.227135 -0.6342068,-0.07442 -0.764763,-0.08519 -1.4027173,-0.1786 C 6.5821452,12.269275 5.6165487,12.079997 4.6516476,11.881966 4.0050899,11.74514 3.9223902,11.728069 3.2913635,11.592914 2.8462195,11.497574 2.3999637,11.383716 1.9509312,11.361895 c -0.05864,-0.0028 -0.1172968,0.0045 -0.1759452,0.0067 0,0 0.223645,-0.284792 0.223645,-0.284792 z"
     inkscape:connector-curvature="0" />
  <path
     style="fill:#000000;fill-opacity:1;stroke:#000000;stroke-width:1.28250003;stroke-miterlimit:4;stroke-dasharray:none;stroke-opacity:1"
     id="path65-3"
     d="m 7.2659194,6.0937382 c -0.022374,0.7942225 -0.048836,1.5883241 -0.075514,2.3824436 -0.05787,1.5667172 -0.1276174,3.1328092 -0.1674341,4.7001332 -0.025329,1.117971 -0.032226,2.236244 -0.018574,3.354401 0.00553,0.297059 0.010526,0.594207 0.023619,0.891054 0.00138,0.03236 0.00281,0.06469 0.00394,0.09705 0,0 -0.3958556,0.202026 -0.3958556,0.202026 v 0 c 7.15e-4,-0.03349 0.00141,-0.06698 0.00255,-0.100462 0.010259,-0.305374 0.017501,-0.610843 0.025065,-0.916293 0.024723,-1.128214 0.040991,-2.256633 0.076246,-3.384595 0.050225,-1.564104 0.1223698,-3.12754 0.1523005,-4.6922403 0.00868,-0.778486 0.022274,-1.557568 -0.014782,-2.3355945 0,0 0.3884403,-0.19792 0.3884403,-0.19792 z"
     inkscape:connector-curvature="0" />
  <path
     style="fill:#000000;fill-opacity:1;stroke:#000000;stroke-width:1.28250003;stroke-miterlimit:4;stroke-dasharray:none;stroke-opacity:1"
     id="path65-6"
     d="m 9.998593,6.1234411 c -0.02237,0.7942225 -0.04884,1.5883241 -0.07551,2.3824436 -0.05787,1.5667173 -0.127618,3.1328093 -0.167434,4.7001333 -0.02533,1.117971 -0.03223,2.236244 -0.01857,3.354401 0.0055,0.297059 0.01053,0.594207 0.02362,0.891054 0.0014,0.03236 0.0028,0.06469 0.0039,0.09705 0,0 -0.395856,0.202026 -0.395856,0.202026 v 0 c 7.15e-4,-0.03349 0.0014,-0.06698 0.0025,-0.100462 0.01026,-0.305374 0.0175,-0.610843 0.02506,-0.916293 0.02472,-1.128214 0.04099,-2.256633 0.07625,-3.384595 0.05022,-1.564104 0.12237,-3.12754 0.152301,-4.6922404 0.0087,-0.778486 0.02227,-1.557568 -0.01478,-2.3355945 0,0 0.38844,-0.19792 0.38844,-0.19792 z"
     inkscape:connector-curvature="0" />
  <path
     style="fill:#000000;fill-opacity:1;stroke:#000000;stroke-width:1.28250003;stroke-miterlimit:4;stroke-dasharray:none;stroke-opacity:1"
     id="path65-7"
     d="m 12.683757,6.1234411 c -0.02237,0.7942225 -0.04884,1.5883241 -0.07551,2.3824436 -0.05787,1.5667173 -0.127617,3.1328093 -0.167434,4.7001333 -0.02533,1.117971 -0.03223,2.236245 -0.01857,3.354402 0.0055,0.297059 0.01053,0.594207 0.02362,0.891054 0.0014,0.03236 0.0028,0.06469 0.0039,0.09705 0,0 -0.395855,0.202026 -0.395855,0.202026 v 0 c 7.15e-4,-0.03349 0.0014,-0.06698 0.0026,-0.100462 0.01026,-0.305374 0.0175,-0.610843 0.02506,-0.916293 0.02472,-1.128214 0.04099,-2.256634 0.07625,-3.384596 0.05023,-1.564104 0.122369,-3.12754 0.1523,-4.6922404 0.0087,-0.778486 0.02227,-1.557568 -0.01478,-2.3355945 0,0 0.38844,-0.19792 0.38844,-0.19792 z"
     inkscape:connector-curvature="0" />
  <path
     style="fill:#000000;fill-opacity:1;stroke:#000000;stroke-width:1.28250003;stroke-miterlimit:4;stroke-dasharray:none;stroke-opacity:1"
     id="path65-35"
     d="m 21.19239,6.1285372 c -0.02237,0.7942225 -0.04884,1.5883241 -0.07551,2.3824436 -0.05787,1.5667182 -0.127617,3.1328112 -0.167434,4.7001352 -0.02533,1.117971 -0.03223,2.236244 -0.01857,3.354401 0.0055,0.297059 0.01053,0.594207 0.02362,0.891054 0.0014,0.03236 0.0028,0.06469 0.0039,0.09705 0,0 -0.395856,0.202026 -0.395856,0.202026 v 0 c 7.15e-4,-0.03349 0.0014,-0.06698 0.0026,-0.100462 0.01026,-0.305374 0.0175,-0.610843 0.02506,-0.916293 0.02472,-1.128214 0.04099,-2.256633 0.07625,-3.384595 0.05023,-1.564104 0.12237,-3.127541 0.152301,-4.6922423 0.0087,-0.778486 0.02227,-1.557568 -0.01478,-2.3355945 0,0 0.38844,-0.19792 0.38844,-0.19792 z"
     inkscape:connector-curvature="0" />
  <path
     style="fill:#000000;fill-opacity:1;stroke:#000000;stroke-width:1.28250003;stroke-miterlimit:4;stroke-dasharray:none;stroke-opacity:1"
     id="path65-35-6"
     d="m 18.371148,6.2529841 c -0.02237,0.7942225 -0.04884,1.5883241 -0.07551,2.3824436 -0.05787,1.5667183 -0.127617,3.1328113 -0.167434,4.7001353 -0.02533,1.117971 -0.03223,2.236244 -0.01857,3.354401 0.0055,0.297059 0.01053,0.594207 0.02362,0.891054 0.0014,0.03236 0.0028,0.06469 0.0039,0.09705 0,0 -0.395856,0.202026 -0.395856,0.202026 v 0 c 7.15e-4,-0.03349 0.0014,-0.06698 0.0026,-0.100462 0.01026,-0.305374 0.0175,-0.610844 0.02506,-0.916293 0.02472,-1.128214 0.04099,-2.256633 0.07625,-3.384595 0.05023,-1.564104 0.12237,-3.127541 0.152301,-4.6922424 0.0087,-0.778486 0.02227,-1.557568 -0.01478,-2.3355945 0,0 0.38844,-0.19792 0.38844,-0.19792 z"
     inkscape:connector-curvature="0" />
</svg>
